<mxfile host="app.diagrams.net" modified="2023-08-27T00:12:33.382Z" agent="Mozilla/5.0 (Macintosh; Intel Mac OS X 10.15; rv:109.0) Gecko/20100101 Firefox/116.0" etag="P0XPihtoWhfuT3ruZeiq" version="21.6.8" type="device">
  <diagram name="Page-1" id="YSyAPdnmFSUSHfiPZwmO">
    <mxGraphModel dx="1122" dy="949" grid="1" gridSize="10" guides="1" tooltips="1" connect="1" arrows="1" fold="1" page="1" pageScale="1" pageWidth="850" pageHeight="1100" math="0" shadow="0">
      <root>
        <mxCell id="0" />
        <mxCell id="1" parent="0" />
        <mxCell id="lMtsCGv7hXH7_TP7z-IM-11" value="" style="ellipse;whiteSpace=wrap;html=1;align=center;aspect=fixed;fillColor=none;strokeColor=none;resizable=0;perimeter=centerPerimeter;rotatable=0;allowArrows=0;points=[];outlineConnect=1;" vertex="1" parent="1">
          <mxGeometry x="660" y="720" width="10" height="10" as="geometry" />
        </mxCell>
        <mxCell id="lMtsCGv7hXH7_TP7z-IM-17" value="«component»&lt;br&gt;&lt;b&gt;Analyzer&lt;/b&gt;&lt;br&gt;&lt;b&gt;&lt;/b&gt;" style="html=1;dropTarget=0;whiteSpace=wrap;" vertex="1" parent="1">
          <mxGeometry x="465" y="360" width="180" height="90" as="geometry" />
        </mxCell>
        <mxCell id="lMtsCGv7hXH7_TP7z-IM-18" value="" style="shape=module;jettyWidth=8;jettyHeight=4;" vertex="1" parent="lMtsCGv7hXH7_TP7z-IM-17">
          <mxGeometry x="1" width="20" height="20" relative="1" as="geometry">
            <mxPoint x="-27" y="7" as="offset" />
          </mxGeometry>
        </mxCell>
        <mxCell id="lMtsCGv7hXH7_TP7z-IM-19" value="&lt;div&gt;«component»&lt;/div&gt;&lt;div&gt;&lt;b&gt;Elasticsearch&lt;/b&gt;&lt;/div&gt;" style="html=1;dropTarget=0;whiteSpace=wrap;" vertex="1" parent="1">
          <mxGeometry x="465" y="550" width="180" height="90" as="geometry" />
        </mxCell>
        <mxCell id="lMtsCGv7hXH7_TP7z-IM-20" value="" style="shape=module;jettyWidth=8;jettyHeight=4;" vertex="1" parent="lMtsCGv7hXH7_TP7z-IM-19">
          <mxGeometry x="1" width="20" height="20" relative="1" as="geometry">
            <mxPoint x="-27" y="7" as="offset" />
          </mxGeometry>
        </mxCell>
        <mxCell id="lMtsCGv7hXH7_TP7z-IM-21" value="«component»&lt;br&gt;&lt;b&gt;Data Crawler&lt;/b&gt;&lt;br&gt;&lt;b&gt;&lt;/b&gt;" style="html=1;dropTarget=0;whiteSpace=wrap;" vertex="1" parent="1">
          <mxGeometry x="155" y="550" width="180" height="90" as="geometry" />
        </mxCell>
        <mxCell id="lMtsCGv7hXH7_TP7z-IM-22" value="" style="shape=module;jettyWidth=8;jettyHeight=4;" vertex="1" parent="lMtsCGv7hXH7_TP7z-IM-21">
          <mxGeometry x="1" width="20" height="20" relative="1" as="geometry">
            <mxPoint x="-27" y="7" as="offset" />
          </mxGeometry>
        </mxCell>
        <mxCell id="lMtsCGv7hXH7_TP7z-IM-23" value="&lt;div&gt;«component»&lt;b&gt;&lt;br&gt;&lt;/b&gt;&lt;/div&gt;&lt;div&gt;&lt;b&gt;UI&lt;/b&gt;&lt;/div&gt;" style="html=1;dropTarget=0;whiteSpace=wrap;" vertex="1" parent="1">
          <mxGeometry x="465" y="170" width="180" height="90" as="geometry" />
        </mxCell>
        <mxCell id="lMtsCGv7hXH7_TP7z-IM-24" value="" style="shape=module;jettyWidth=8;jettyHeight=4;" vertex="1" parent="lMtsCGv7hXH7_TP7z-IM-23">
          <mxGeometry x="1" width="20" height="20" relative="1" as="geometry">
            <mxPoint x="-27" y="7" as="offset" />
          </mxGeometry>
        </mxCell>
        <mxCell id="lMtsCGv7hXH7_TP7z-IM-29" value="Docker / Kubernetes" style="shape=umlFrame;whiteSpace=wrap;html=1;pointerEvents=0;width=140;height=30;" vertex="1" parent="1">
          <mxGeometry x="90" y="90" width="615" height="600" as="geometry" />
        </mxCell>
        <mxCell id="lMtsCGv7hXH7_TP7z-IM-31" value="" style="rounded=0;orthogonalLoop=1;jettySize=auto;html=1;endArrow=halfCircle;endFill=0;endSize=6;strokeWidth=1;sketch=0;exitX=0.5;exitY=0;exitDx=0;exitDy=0;" edge="1" parent="1" source="lMtsCGv7hXH7_TP7z-IM-19">
          <mxGeometry relative="1" as="geometry">
            <mxPoint x="610" y="665" as="sourcePoint" />
            <mxPoint x="555" y="500" as="targetPoint" />
          </mxGeometry>
        </mxCell>
        <mxCell id="lMtsCGv7hXH7_TP7z-IM-32" value="" style="rounded=0;orthogonalLoop=1;jettySize=auto;html=1;endArrow=oval;endFill=0;sketch=0;sourcePerimeterSpacing=0;targetPerimeterSpacing=0;endSize=10;exitX=0.5;exitY=1;exitDx=0;exitDy=0;startArrow=box;startFill=0;" edge="1" parent="1" source="lMtsCGv7hXH7_TP7z-IM-17">
          <mxGeometry relative="1" as="geometry">
            <mxPoint x="570" y="665" as="sourcePoint" />
            <mxPoint x="555" y="500" as="targetPoint" />
          </mxGeometry>
        </mxCell>
        <mxCell id="lMtsCGv7hXH7_TP7z-IM-33" value="" style="ellipse;whiteSpace=wrap;html=1;align=center;aspect=fixed;fillColor=none;strokeColor=none;resizable=0;perimeter=centerPerimeter;rotatable=0;allowArrows=0;points=[];outlineConnect=1;" vertex="1" parent="1">
          <mxGeometry x="585" y="660" width="10" height="10" as="geometry" />
        </mxCell>
        <mxCell id="lMtsCGv7hXH7_TP7z-IM-34" value="" style="rounded=0;orthogonalLoop=1;jettySize=auto;html=1;endArrow=halfCircle;endFill=0;endSize=6;strokeWidth=1;sketch=0;exitX=0.5;exitY=0;exitDx=0;exitDy=0;" edge="1" parent="1" source="lMtsCGv7hXH7_TP7z-IM-17">
          <mxGeometry relative="1" as="geometry">
            <mxPoint x="642" y="405" as="sourcePoint" />
            <mxPoint x="555" y="310" as="targetPoint" />
          </mxGeometry>
        </mxCell>
        <mxCell id="lMtsCGv7hXH7_TP7z-IM-35" value="" style="rounded=0;orthogonalLoop=1;jettySize=auto;html=1;endArrow=oval;endFill=0;sketch=0;sourcePerimeterSpacing=0;targetPerimeterSpacing=0;endSize=10;exitX=0.5;exitY=1;exitDx=0;exitDy=0;startArrow=box;startFill=0;" edge="1" parent="1" source="lMtsCGv7hXH7_TP7z-IM-23">
          <mxGeometry relative="1" as="geometry">
            <mxPoint x="635" y="425" as="sourcePoint" />
            <mxPoint x="555" y="310" as="targetPoint" />
          </mxGeometry>
        </mxCell>
        <mxCell id="lMtsCGv7hXH7_TP7z-IM-36" value="" style="ellipse;whiteSpace=wrap;html=1;align=center;aspect=fixed;fillColor=none;strokeColor=none;resizable=0;perimeter=centerPerimeter;rotatable=0;allowArrows=0;points=[];outlineConnect=1;" vertex="1" parent="1">
          <mxGeometry x="700" y="130" width="10" height="10" as="geometry" />
        </mxCell>
        <mxCell id="lMtsCGv7hXH7_TP7z-IM-37" value="" style="rounded=0;orthogonalLoop=1;jettySize=auto;html=1;endArrow=halfCircle;endFill=0;endSize=6;strokeWidth=1;sketch=0;exitX=0;exitY=0.5;exitDx=0;exitDy=0;" edge="1" target="lMtsCGv7hXH7_TP7z-IM-39" parent="1" source="lMtsCGv7hXH7_TP7z-IM-19">
          <mxGeometry relative="1" as="geometry">
            <mxPoint x="615" y="525" as="sourcePoint" />
          </mxGeometry>
        </mxCell>
        <mxCell id="lMtsCGv7hXH7_TP7z-IM-40" value="" style="rounded=0;orthogonalLoop=1;jettySize=auto;html=1;endArrow=oval;endFill=0;sketch=0;sourcePerimeterSpacing=0;targetPerimeterSpacing=0;endSize=10;exitX=1;exitY=0.5;exitDx=0;exitDy=0;" edge="1" parent="1" source="lMtsCGv7hXH7_TP7z-IM-21" target="lMtsCGv7hXH7_TP7z-IM-39">
          <mxGeometry relative="1" as="geometry">
            <mxPoint x="335" y="595" as="sourcePoint" />
            <mxPoint x="405" y="595" as="targetPoint" />
          </mxGeometry>
        </mxCell>
        <mxCell id="lMtsCGv7hXH7_TP7z-IM-39" value="" style="ellipse;whiteSpace=wrap;html=1;align=center;aspect=fixed;fillColor=none;strokeColor=none;resizable=0;perimeter=centerPerimeter;rotatable=0;allowArrows=0;points=[];outlineConnect=1;" vertex="1" parent="1">
          <mxGeometry x="395" y="590" width="10" height="10" as="geometry" />
        </mxCell>
        <mxCell id="lMtsCGv7hXH7_TP7z-IM-41" value="REST API" style="text;html=1;strokeColor=none;fillColor=none;align=center;verticalAlign=middle;whiteSpace=wrap;rounded=0;" vertex="1" parent="1">
          <mxGeometry x="480" y="300" width="60" height="30" as="geometry" />
        </mxCell>
        <mxCell id="lMtsCGv7hXH7_TP7z-IM-42" value="REST API" style="text;html=1;strokeColor=none;fillColor=none;align=center;verticalAlign=middle;whiteSpace=wrap;rounded=0;" vertex="1" parent="1">
          <mxGeometry x="480" y="490" width="60" height="30" as="geometry" />
        </mxCell>
        <mxCell id="lMtsCGv7hXH7_TP7z-IM-43" value="REST API" style="text;html=1;strokeColor=none;fillColor=none;align=center;verticalAlign=middle;whiteSpace=wrap;rounded=0;" vertex="1" parent="1">
          <mxGeometry x="370" y="620" width="60" height="30" as="geometry" />
        </mxCell>
      </root>
    </mxGraphModel>
  </diagram>
</mxfile>
